<svg id="Capa_1" enable-background="new 0 0 511.973 511.973" height="512" viewBox="0 0 511.973 511.973" width="512" xmlns="http://www.w3.org/2000/svg" fill="#0053ff"><g><g><g><path d="m115.487 173.604h-57.756c-4.143 0-7.5 3.357-7.5 7.5s3.357 7.5 7.5 7.5h57.756c4.143 0 7.5-3.357 7.5-7.5s-3.357-7.5-7.5-7.5z"/><path d="m115.487 206.974h-57.756c-4.143 0-7.5 3.357-7.5 7.5s3.357 7.5 7.5 7.5h57.756c4.143 0 7.5-3.357 7.5-7.5s-3.357-7.5-7.5-7.5z"/><path d="m115.487 240.342h-57.756c-4.143 0-7.5 3.357-7.5 7.5s3.357 7.5 7.5 7.5h57.756c4.143 0 7.5-3.357 7.5-7.5s-3.357-7.5-7.5-7.5z"/><path d="m115.487 273.711h-57.756c-4.143 0-7.5 3.357-7.5 7.5s3.357 7.5 7.5 7.5h57.756c4.143 0 7.5-3.357 7.5-7.5s-3.357-7.5-7.5-7.5z"/><path d="m115.487 307.08h-57.756c-4.143 0-7.5 3.357-7.5 7.5s3.357 7.5 7.5 7.5h57.756c4.143 0 7.5-3.357 7.5-7.5s-3.357-7.5-7.5-7.5z"/><path d="m115.487 340.448h-57.756c-4.143 0-7.5 3.357-7.5 7.5s3.357 7.5 7.5 7.5h57.756c4.143 0 7.5-3.357 7.5-7.5s-3.357-7.5-7.5-7.5z"/><path d="m115.487 373.817h-57.756c-4.143 0-7.5 3.357-7.5 7.5s3.357 7.5 7.5 7.5h57.756c4.143 0 7.5-3.357 7.5-7.5s-3.357-7.5-7.5-7.5z"/><path d="m115.487 407.187h-57.756c-4.143 0-7.5 3.357-7.5 7.5s3.357 7.5 7.5 7.5h57.756c4.143 0 7.5-3.357 7.5-7.5s-3.357-7.5-7.5-7.5z"/><path d="m487.317 164.409h-115.221v-56.496c0-10.513-8.553-19.065-19.065-19.065h-328.376c-10.513 0-19.065 8.553-19.065 19.065v338.078c0 10.512 8.553 19.064 19.065 19.064h115.222v27.852c0 10.513 8.553 19.065 19.065 19.065h328.375c10.513 0 19.065-8.553 19.065-19.065v-309.432c.001-10.513-8.552-19.066-19.065-19.066zm-403.424-60.561h269.137c2.241 0 4.065 1.824 4.065 4.065v22.822h-273.202zm-62.749 4.065c0-2.241 1.824-4.065 4.065-4.065h43.684v26.888h-47.749zm470.239 384.994c0 2.241-1.824 4.065-4.065 4.065h-328.376c-2.241 0-4.065-1.824-4.065-4.065v-108.296c0-4.143-3.357-7.5-7.5-7.5s-7.5 3.357-7.5 7.5v65.444h-115.222c-2.241 0-4.065-1.823-4.065-4.064v-300.256h336.506v18.674h-197.6-.554c-10.513 0-19.065 8.553-19.065 19.065v166.262c0 4.143 3.357 7.5 7.5 7.5s7.5-3.357 7.5-7.5v-128.439h336.506zm-288.203-313.498v26.888h-47.749v-22.822c0-2.241 1.824-4.065 4.065-4.065h43.684zm288.203 26.888h-273.203v-26.888h269.138c2.241 0 4.065 1.824 4.065 4.065z"/><path d="m225.058 415.416c4.08 3.838 9.413 5.951 15.015 5.951 9.007 0 16.992-5.402 20.342-13.763 3.351-8.36 1.307-17.782-5.208-24.003l-25.626-24.467 25.625-24.468c6.516-6.22 8.56-15.642 5.21-24.002-3.351-8.361-11.336-13.764-20.343-13.764-5.602 0-10.935 2.113-15.016 5.952l-43.846 41.244c-4.131 3.886-6.499 9.366-6.499 15.036 0 5.671 2.368 11.151 6.499 15.037zm-33.57-60.393 43.846-41.243c1.287-1.212 2.971-1.879 4.738-1.879 4.341 0 6.011 3.324 6.419 4.343s1.496 4.576-1.645 7.573l-28.696 27.4c-2.151 2.056-3.386 4.94-3.386 7.916 0 2.977 1.234 5.861 3.387 7.919l28.695 27.398c3.141 2.998 2.053 6.555 1.645 7.573-.408 1.02-2.078 4.343-6.419 4.343-1.768 0-3.451-.667-4.738-1.878l-43.846-41.244c-1.146-1.078-1.776-2.538-1.776-4.111 0-1.571.631-3.031 1.776-4.11z"/><path d="m385.846 407.604c3.351 8.36 11.335 13.763 20.342 13.763 5.602 0 10.935-2.113 15.016-5.952l43.846-41.244c4.131-3.886 6.499-9.366 6.499-15.037 0-5.67-2.368-11.15-6.499-15.036l-43.847-41.245c-4.08-3.838-9.413-5.951-15.015-5.951-9.007 0-16.991 5.402-20.342 13.764-3.351 8.36-1.306 17.782 5.208 24.002l25.626 24.467-25.626 24.468c-6.515 6.219-8.559 15.641-5.208 24.001zm15.567-13.153 28.694-27.398c2.153-2.056 3.389-4.941 3.389-7.919 0-2.977-1.235-5.862-3.388-7.918l-28.696-27.398c-3.14-2.997-2.051-6.555-1.643-7.573s2.077-4.343 6.418-4.343c1.768 0 3.451.667 4.738 1.878l43.846 41.244c1.146 1.078 1.776 2.538 1.776 4.11 0 1.573-.631 3.033-1.776 4.111l-43.846 41.243c-1.287 1.212-2.971 1.879-4.738 1.879-4.341 0-6.01-3.324-6.418-4.343s-1.497-4.575 1.644-7.573z"/><path d="m299.955 419.101c8.759 0 16.804-5.064 20.604-12.934l44.313-76.164c.118-.203.228-.412.326-.626 3.289-7.12 2.73-15.316-1.496-21.924-4.226-6.607-11.432-10.552-19.275-10.552-8.761 0-16.805 5.063-20.604 12.934l-44.313 76.163c-.119.203-.228.412-.326.626-3.289 7.121-2.729 15.317 1.496 21.925 4.226 6.607 11.431 10.552 19.275 10.552zm-7.274-25.913 44.267-76.085c.119-.203.228-.413.326-.627 1.284-2.778 4.092-4.574 7.153-4.574 2.742 0 5.162 1.324 6.639 3.635 1.424 2.226 1.65 4.861.636 7.277l-44.267 76.085c-.118.203-.228.412-.326.626-1.284 2.779-4.093 4.576-7.153 4.576-2.742 0-5.162-1.324-6.639-3.634-1.424-2.227-1.651-4.863-.636-7.279z"/><path d="m25.383 68.752h17.659c2.255 3.198 5.97 5.297 10.172 5.297h281.981c11.222 0 20.747-7.407 23.943-17.589h10.024c4.143 0 7.5-3.357 7.5-7.5s-3.357-7.5-7.5-7.5h-10.024c-3.196-10.182-12.72-17.589-23.943-17.589h-71.209c-4.143 0-7.5 3.357-7.5 7.5s3.357 7.5 7.5 7.5h71.209c5.563 0 10.089 4.525 10.089 10.089s-4.525 10.089-10.089 10.089h-126.344v-20.178h20.136c4.143 0 7.5-3.357 7.5-7.5s-3.357-7.5-7.5-7.5h-173.219v-8.871h93.009c4.143 0 7.5-3.357 7.5-7.5s-3.357-7.5-7.5-7.5h-93.888c-7.786 0-14.121 6.335-14.121 14.121v15.046h-15.385c-10.914 0-19.793 8.879-19.793 19.793 0 10.913 8.879 19.792 19.793 19.792zm148.676-29.881h19.792v20.178h-19.792zm-118.291 0h103.291v20.178h-103.291zm-30.385 5.296h15.385v9.585h-15.385c-2.643 0-4.793-2.149-4.793-4.792s2.15-4.793 4.793-4.793z"/></g></g></g></svg>