<svg width="941.40412" height="435.42027" xmlns="http://www.w3.org/2000/svg">
 <title>online_test</title>

 <g>
  <title>background</title>
  <rect fill="none" id="canvas_background" height="602" width="802" y="-1" x="-1"/>
 </g>
 <g>
  <title>Layer 1</title>
  <path id="svg_3" fill="#3f3d56" d="m798.85051,5.36232l-260.1696,0l0,-5.36232l-117.971,0l0,5.36232l-261.24209,0a17.59851,17.59851 0 0 0 -17.59851,17.59852l0,356.25218a17.59856,17.59856 0 0 0 17.59851,17.59858l639.38269,0a17.59856,17.59856 0 0 0 17.59855,-17.59858l0,-356.25218a17.5985,17.5985 0 0 0 -17.59855,-17.59852z"/>
  <rect id="svg_4" fill="#6c63ff" height="353.91304" width="627.3913" y="36.46377" x="165.46352"/>
  <circle id="svg_5" fill="#6c63ff" r="6.43478" cy="20.37681" cx="478.62294"/>
  <path id="svg_6" fill="#3f3d56" d="m756.83786,81.50684l-29.74,0l0,-29.73995l29.74,0l0,29.73995zm-28.44691,-1.293l27.15387,0l0,-27.15391l-27.15387,0l0,27.15391z"/>
  <path id="svg_7" fill="#3f3d56" d="m834.06481,383.94202l-61.22931,0l0,-4.41154a0.87468,0.87468 0 0 0 -0.87471,-0.8747l-20.99291,0a0.87468,0.87468 0 0 0 -0.8747,0.8747l0,4.41154l-13.12057,0l0,-4.41154a0.87468,0.87468 0 0 0 -0.8747,-0.8747l-20.99291,0a0.87468,0.87468 0 0 0 -0.87471,0.8747l0,4.41154l-13.12056,0l0,-4.41154a0.87468,0.87468 0 0 0 -0.87471,-0.8747l-20.99296,0a0.87468,0.87468 0 0 0 -0.8747,0.8747l0,4.41154l-13.12052,0l0,-4.41154a0.87468,0.87468 0 0 0 -0.8747,-0.8747l-20.99291,0a0.87468,0.87468 0 0 0 -0.8747,0.8747l0,4.41154l-13.12057,0l0,-4.41154a0.87468,0.87468 0 0 0 -0.87471,-0.8747l-20.9929,0a0.87468,0.87468 0 0 0 -0.87471,0.8747l0,4.41154l-13.12058,0l0,-4.41154a0.87467,0.87467 0 0 0 -0.8747,-0.8747l-20.9929,0a0.87468,0.87468 0 0 0 -0.8747,0.8747l0,4.41154l-13.12057,0l0,-4.41154a0.87468,0.87468 0 0 0 -0.8747,-0.8747l-164.44443,0a0.87468,0.87468 0 0 0 -0.8747,0.8747l0,4.41154l-13.12059,0l0,-4.41154a0.87468,0.87468 0 0 0 -0.8747,-0.8747l-20.99291,0a0.87468,0.87468 0 0 0 -0.87471,0.8747l0,4.41154l-13.12056,0l0,-4.41154a0.87468,0.87468 0 0 0 -0.87471,-0.8747l-20.99291,0a0.87468,0.87468 0 0 0 -0.8747,0.8747l0,4.41154l-13.12057,0l0,-4.41154a0.87468,0.87468 0 0 0 -0.8747,-0.8747l-20.99291,0a0.87468,0.87468 0 0 0 -0.87471,0.8747l0,4.41154l-13.12056,0l0,-4.41154a0.87468,0.87468 0 0 0 -0.87471,-0.8747l-20.99291,0a0.87468,0.87468 0 0 0 -0.8747,0.8747l0,4.41154l-13.12057,0l0,-4.41154a0.87468,0.87468 0 0 0 -0.8747,-0.8747l-20.99291,0a0.87468,0.87468 0 0 0 -0.8747,0.8747l0,4.41154l-13.12057,0l0,-4.41154a0.87468,0.87468 0 0 0 -0.87471,-0.8747l-20.9929,0a0.87468,0.87468 0 0 0 -0.87471,0.8747l0,4.41154l-40.2364,0a20.99291,20.99291 0 0 0 -20.99291,20.9929l0,9.4925a20.99291,20.99291 0 0 0 20.99291,20.99286l698.01418,0a20.99292,20.99292 0 0 0 20.99291,-20.99286l0,-9.4925a20.99292,20.99292 0 0 0 -20.99291,-20.9929z"/>
  <path id="svg_9" fill="#3f3d56" d="m754.0716,233.67072l-202,0l0,-115l202,0l0,115zm-200,-2l198,0l0,-111l-198,0l0,111z"/>
  <path id="svg_10" fill="#3f3d56" d="m384.0716,256.67072l-180,0l0,-112l180,0l0,112zm-178,-2l176,0l0,-108l-176,0l0,108z"/>
  <path id="svg_11" fill="#d0cde1" d="m288.16584,213.67072l-0.17236,-2.23633c-0.51563,-4.64356 1.03223,-9.71777 5.332,-14.87695c3.87012,-4.5586 6.02,-7.91211 6.02,-11.78223c0,-4.38574 -2.75195,-7.30957 -8.16992,-7.39551a15.28045,15.28045 0 0 0 -8.686,2.666l-2.064,-5.418c2.83838,-2.06445 7.74023,-3.44043 12.29785,-3.44043c9.89014,0 14.36182,6.10644 14.36182,12.6416c0,5.84863 -3.26807,10.0625 -7.396,14.96387c-3.78369,4.47168 -5.15967,8.25586 -4.90186,12.6416l0.08594,2.23633l-6.70747,0.00005zm-1.89209,12.04a5.08415,5.08415 0 0 1 5.15967,-5.418c3.01025,0 5.07422,2.23535 5.07422,5.418a5.12129,5.12129 0 1 1 -10.23389,0z"/>
  <path id="svg_12" fill="#d0cde1" d="m647.16584,188.67072l-0.17236,-2.23633c-0.51563,-4.64356 1.03223,-9.71777 5.332,-14.87695c3.87012,-4.5586 6.02,-7.91211 6.02,-11.78223c0,-4.38574 -2.75195,-7.30957 -8.16992,-7.39551a15.28045,15.28045 0 0 0 -8.686,2.666l-2.064,-5.418c2.83838,-2.06445 7.74023,-3.44043 12.29785,-3.44043c9.89014,0 14.36182,6.10644 14.36182,12.6416c0,5.84863 -3.26807,10.0625 -7.396,14.96387c-3.78369,4.47168 -5.15967,8.25586 -4.90186,12.6416l0.08594,2.23633l-6.70747,0.00005zm-1.89209,12.04a5.08415,5.08415 0 0 1 5.15967,-5.418c3.01025,0 5.07422,2.23535 5.07422,5.418a5.12129,5.12129 0 1 1 -10.23389,0z"/>
  <circle id="svg_13" fill="#2f2e41" r="86.29225" cy="260.84872" cx="482.69312"/>
  <polygon id="svg_14" fill="#2f2e41" points="449.365 379.018 423.568 374.348 431.935 320.484 457.731 325.154 449.365 379.018"/>
  <rect id="svg_15" fill="#2f2e41" transform="rotate(10.261059761047363 -14.69357967376663,-333.6097717285157) " height="46.9692" width="26.21537" y="230.46295" x="593.73875"/>
  <ellipse id="svg_16" fill="#2f2e41" transform="rotate(-78.58696746826172 -226.21522521972653,871.6647949218749) " ry="21.84614" rx="8.1923" cy="1482.86073" cx="399.86705"/>
  <ellipse id="svg_17" fill="#2f2e41" transform="rotate(-82.45369720458984 -238.28390502929665,865.8482055664065) " ry="21.84614" rx="8.1923" cy="1477.10524" cx="333.82689"/>
  <circle id="svg_18" fill="#fff" r="29.49229" cy="239.74114" cx="488.73433"/>
  <circle id="svg_19" fill="#3f3d56" r="9.83076" cy="229.16973" cx="500.85556"/>
  <path id="svg_20" fill="#fff" d="m414.62058,166.97198c-1.29768,-31.94667 26.23575,-59.00572 61.49764,-60.43807s64.89929,23.30439 66.197,55.25107s-23.21382,39.20523 -58.47571,40.63758s-67.92124,-3.5039 -69.21893,-35.45058z"/>
  <ellipse id="svg_21" fill="#2f2e41" transform="rotate(-12.910099983215332 -218.4793548583984,-65.6873474121093) " ry="13.5449" rx="43.14613" cy="411.73022" cx="473.19066"/>
  <ellipse id="svg_22" fill="#2f2e41" transform="rotate(-12.910099983215332 -229.05476379394517,-102.8203811645508) " ry="13.5449" rx="43.14613" cy="402.76623" cx="293.22682"/>
  <path id="svg_23" fill="#fff" d="m458.99291,294.85541a19.66153,19.66153 0 0 0 38.69415,7.00473c1.9343,-10.68509 -6.32706,-14.46612 -17.01215,-16.40043s-19.74769,-1.28939 -21.682,9.3957z"/>
  <rect id="svg_24" fill="#d0cde1" height="134.9673" width="141.88698" y="13.12227" x="154.5348"/>
  <rect id="svg_25" fill="#fff" height="83.84231" width="109.63994" y="29.24579" x="170.65832"/>
  <rect id="svg_26" fill="#f2f2f2" height="3.13877" width="59.63671" y="122.97937" x="170.54973"/>
  <rect id="svg_27" fill="#f2f2f2" height="3.13877" width="59.63671" y="132.3957" x="170.54973"/>
  <circle id="svg_28" fill="#3f3d56" r="12.5551" cy="71.18959" cx="190.16707"/>
  <circle id="svg_29" fill="#6c63ff" r="12.5551" cy="71.18959" cx="225.47829"/>
  <circle id="svg_30" fill="#e6e6e6" r="12.5551" cy="71.18959" cx="260.7895"/>
  <circle id="svg_31" fill="#3f3d56" r="6.27755" cy="20.9692" cx="225.47829"/>
  <rect id="svg_32" fill="#d0cde1" height="134.9673" width="141.88698" y="274.45884" x="222.02216"/>
  <rect id="svg_33" fill="#fff" height="83.84231" width="109.63994" y="290.58236" x="238.14568"/>
  <rect id="svg_34" fill="#6c63ff" height="38.437" width="38.437" y="304.36086" x="262.27176"/>
  <path id="svg_35" fill="#3f3d56" d="m276.98598,313.97261l0,46.67353l46.67356,0l0,-46.67353l-46.67356,0zm44.64908,44.649l-42.62461,0l0,-42.62447l42.62461,0l0,42.62447z"/>
  <rect id="svg_36" fill="#f2f2f2" height="3.13877" width="59.63671" y="382.74656" x="238.0371"/>
  <circle id="svg_37" fill="#3f3d56" r="6.27755" cy="282.30578" cx="292.96565"/>
  <rect id="svg_38" fill="#d0cde1" height="134.9673" width="141.88698" y="234.05278" x="591.4365"/>
  <rect id="svg_39" fill="#fff" height="83.84231" width="109.63994" y="250.1763" x="607.56002"/>
  <rect id="svg_40" fill="#3f3d56" height="6.98967" width="23.58659" y="315.8124" x="650.5867"/>
  <rect id="svg_41" fill="#3f3d56" height="2.99557" width="80.61684" y="261.39284" x="622.07157"/>
  <rect id="svg_42" fill="#3f3d56" height="2.99557" width="80.61684" y="270.87882" x="622.07157"/>
  <rect id="svg_43" fill="#3f3d56" height="2.99557" width="80.61684" y="280.36479" x="622.07157"/>
  <rect id="svg_44" fill="#3f3d56" height="2.99557" width="80.61684" y="289.85077" x="622.07157"/>
  <rect id="svg_45" fill="#3f3d56" height="2.99557" width="80.61684" y="299.33675" x="622.07157"/>
  <rect id="svg_46" fill="#f2f2f2" height="3.13877" width="59.63671" y="342.3405" x="607.45144"/>
  <rect id="svg_47" fill="#f2f2f2" height="3.13877" width="83.17752" y="350.18743" x="607.45144"/>
  <circle id="svg_48" fill="#3f3d56" r="6.27755" cy="241.89971" cx="662.37999"/>
  <rect id="svg_49" height="71" width="67" y="366.15463" x="25.98205" fill-opacity="null" stroke-opacity="null" stroke-width="null" stroke="null" fill="#3f3d56"/>
  <rect stroke="null" id="svg_52" height="32.99999" width="6" y="385.16504" x="16.98206" stroke-width="null" fill="#3f3d56"/>
  <rect stroke="null" id="svg_54" height="5" width="7" y="385.16505" x="18.98205" stroke-width="null" fill="#3f3d56"/>
  <rect stroke="null" id="svg_55" height="5" width="7" y="413.16505" x="18.98205" stroke-width="null" fill="#3f3d56"/>
 </g>
</svg>