<svg height="512" viewBox="0 0 60 60" width="512" xmlns="http://www.w3.org/2000/svg" ><g id="Page-1" fill="#0053ff" fill-rule="evenodd"><g id="037---Online-Server" fill="#0053ff" fill-rule="nonzero"><path id="Shape" d="m28.971 18.231h.086c2.7588093-.2040887 5.4972698-.6250559 8.19-1.259.5323481-.1388062.8525954-.6815504.716707-1.2146508-.1358883-.5331004-.6768703-.8563156-1.210707-.7233492-2.5864278.605899-5.216561 1.0071397-7.866 1.2-.5522847.023196-.981196.4897153-.958 1.042s.4897153.981196 1.042.958z"/><circle id="Oval" cx="5" cy="11" r="1"/><path id="Shape" d="m5 14c-.55228475 0-1 .4477153-1 1v2c0 .5522847.44771525 1 1 1s1-.4477153 1-1v-2c0-.5522847-.44771525-1-1-1z"/><circle id="Oval" cx="5" cy="24" r="1"/><path id="Shape" d="m5 27c-.55228475 0-1 .4477153-1 1v2c0 .5522847.44771525 1 1 1s1-.4477153 1-1v-2c0-.5522847-.44771525-1-1-1z"/><circle id="Oval" cx="5" cy="37" r="1"/><path id="Shape" d="m5 40c-.55228475 0-1 .4477153-1 1v2c0 .5522847.44771525 1 1 1s1-.4477153 1-1v-2c0-.5522847-.44771525-1-1-1z"/><path id="Shape" d="m60 42c.0005729-2.9131994-.7107226-5.7824117-2.072-8.358-.011-.027-.024-.051-.037-.077-3.1220375-5.8803117-9.2332868-9.5587523-15.891-9.565v-19c0-4.943-20.143-5-21-5s-21 .057-21 5v40c0 4.943 20.143 5 21 5 1.675 0 3.291-.046 4.84-.124.078.161.149.325.232.483.011.026.024.05.037.075 3.1168974 5.8853174 9.2312695 9.5660364 15.891 9.5660364s12.7741026-3.680719 15.891-9.5660364c.013-.026.026-.05.037-.077 1.3611192-2.5752892 2.07241-5.4441389 2.072-8.357zm-33.949 1h3.983c.0645889 2.0290561.3704057 4.0432174.911 6h-3.31c-.9181356-1.8761109-1.4564485-3.9151749-1.584-6zm31.9-2h-3.985c-.0645889-2.0290561-.3704057-4.0432174-.911-6h3.31c.9181356 1.8761109 1.4564485 3.9151749 1.584 6zm-5.981 0h-3.984c-.0314564-2.0063493-.174008-4.0094167-.427-6h3.419c.586283 1.9491893.9190214 3.9657855.99 6zm-19.938 0c.0709786-2.0342145.403717-4.0508107.99-6h3.419c-.252992 1.9905833-.3955436 3.9936507-.427 6zm6.506-13.991c-.8631377 1.9073447-1.4645794 3.922578-1.788 5.991h-3.011c.9335115-2.4498807 2.6119641-4.545236 4.799-5.991zm-.522 13.991c.023666-2.0065462.1649081-4.0099809.423-6h7.122c.2580919 1.9900191.399334 3.9934538.423 6zm7.968 2c-.023666 2.0065462-.1649081 4.0099809-.423 6h-7.122c-.2580919-1.9900191-.399334-3.9934538-.423-6zm1.266-10c-.3234206-2.068422-.9248623-4.0836553-1.788-5.991 2.1870359 1.445764 3.8654885 3.5411193 4.799 5.991zm-2.018 0h-6.464c.879-4.611 2.315-7 3.232-7s2.353 2.389 3.232 7zm-13.608 0h-2.842c1.4976748-2.1883225 3.5126824-3.9728374 5.866-5.195-1.2933932 1.5489929-2.3157817 3.3053778-3.024 5.195zm-3.989 2h3.31c-.5405943 1.9567826-.8464111 3.9709439-.911 6h-3.983c.1275515-2.0848251.6658644-4.1238891 1.584-6zm4.4 8h3.982c.0314564 2.0063493.174008 4.0094167.427 6h-3.422c-.586283-1.9491893-.9190214-3.9657855-.99-6zm4.718 8c.3234206 2.068422.9248623 4.0836553 1.788 5.991-2.1881519-1.4452959-3.8676943-3.5407017-4.802-5.991zm2.018 0h6.464c-.879 4.611-2.315 7-3.232 7s-2.356-2.389-3.235-7zm6.694 5.991c.8621057-1.9074935 1.4625367-3.9227217 1.785-5.991h3.011c-.9335115 2.4498807-2.6119641 4.545236-4.799 5.991zm2.094-7.991c.252992-1.9905833.3955436-3.9936507.427-6h3.982c-.0709786 2.0342145-.403717 4.0508107-.99 6zm6.407-6h3.983c-.1275515 2.0848251-.6658644 4.1238891-1.584 6h-3.31c.5405943-1.9567826.8464111-3.9709439.911-6zm1.252-10h-2.842c-.7078354-1.8898038-1.7302598-3.6462503-3.024-5.195 2.3535063 1.2218879 4.3685751 3.006457 5.866 5.195zm-29.109.566c-.013.025-.026.049-.037.075-.038.074-.07.151-.108.225-1.678.085-3.347.134-4.964.134-11.78 0-18.5-1.934-19-3.031v-10.607c5.109 2.599 18.309 2.638 19 2.638s13.891-.039 19-2.638v3.756c-5.9044165.6676411-11.1006519 4.2018742-13.891 9.448zm13.891-15.604c-.474 1.095-7.195 3.038-19 3.038-11.837 0-18.565-1.954-19-3v-10.638c5.109 2.599 18.309 2.638 19 2.638s13.891-.039 19-2.638zm-19-15.962c11.665 0 18.37 1.9 18.984 3-.614 1.1-7.319 3-18.984 3-11.8 0-18.526-1.943-19-2.943v-.019c.474-1.095 7.2-3.038 19-3.038zm0 46c-11.78 0-18.5-1.934-19-3.031v-11.607c5.109 2.599 18.309 2.638 19 2.638 1.335 0 2.706-.038 4.085-.095-1.4219844 3.8695645-1.4460394 8.1145687-.068 12-1.298.059-2.632.095-4.017.095zm7.782 3h2.842c.7077126 1.8913831 1.7301221 3.6494946 3.024 5.2-2.3538901-1.22357-4.3689498-3.0098486-5.866-5.2zm20.57 5.2c1.2938779-1.5505054 2.3162874-3.3086169 3.024-5.2h2.842c-1.4970502 2.1901514-3.5121099 3.97643-5.866 5.2z"/></g></g></svg>