<?xml version="1.0" encoding="utf-8"?>
<!-- Generator: Adobe Illustrator 23.0.3, SVG Export Plug-In . SVG Version: 6.00 Build 0)  -->
<svg version="1.1" id="Icons" xmlns="http://www.w3.org/2000/svg" xmlns:xlink="http://www.w3.org/1999/xlink" x="0px" y="0px"
	 viewBox="0 0 32 32" style="enable-background:new 0 0 32 32;" xml:space="preserve">
<style type="text/css">
	.st0{fill:none;stroke:#000000;stroke-width:2;stroke-linecap:round;stroke-linejoin:round;stroke-miterlimit:10;}
</style>
<g>
	<path fill="#8B4513" d="M7.5,24.5C5.7,22.7,4,20.9,2.3,19c0,0.2-0.1,0.3-0.1,0.5c-0.8,3.9-0.3,7.2,1.4,8.9c1.2,1.2,3.1,1.8,5.5,1.8
		c1.1,0,2.2-0.1,3.4-0.4c0.2,0,0.3-0.1,0.5-0.1C11.1,28,9.3,26.3,7.5,24.5z"/>
	<path fill="#8B4513" d="M24.5,7.5c1.8,1.8,3.5,3.6,5.2,5.5c0-0.2,0.1-0.3,0.1-0.5c0.8-3.9,0.3-7.2-1.4-8.9c-1.7-1.7-5-2.2-8.9-1.4
		c-0.2,0-0.3,0.1-0.5,0.1C20.9,4,22.7,5.7,24.5,7.5z"/>
	<path fill="#8B4513" d="M23.1,8.9C21,6.9,18.9,4.9,16.7,3c-3.1,1.1-6.1,2.9-8.5,5.3c-2.4,2.4-4.2,5.3-5.3,8.5c1.9,2.1,3.9,4.3,5.9,6.3
		c2.1,2.1,4.2,4.1,6.3,5.9c3.1-1.1,6.1-2.9,8.5-5.3c2.4-2.4,4.2-5.3,5.3-8.5C27.1,13.1,25.1,11,23.1,8.9z M22.2,12.8
		c-0.2,0.2-0.5,0.3-0.7,0.3s-0.5-0.1-0.7-0.3l-0.1-0.1L19,14.4l0.1,0.1c0.4,0.4,0.4,1,0,1.4c-0.2,0.2-0.5,0.3-0.7,0.3
		s-0.5-0.1-0.7-0.3l-0.1-0.1l-1.7,1.7l0.1,0.1c0.4,0.4,0.4,1,0,1.4c-0.2,0.2-0.5,0.3-0.7,0.3s-0.5-0.1-0.7-0.3L14.4,19l-1.7,1.7
		l0.1,0.1c0.4,0.4,0.4,1,0,1.4c-0.2,0.2-0.5,0.3-0.7,0.3s-0.5-0.1-0.7-0.3l-1.6-1.6c-0.4-0.4-0.4-1,0-1.4s1-0.4,1.4,0l0.1,0.1
		l1.7-1.7L13,17.5c-0.4-0.4-0.4-1,0-1.4s1-0.4,1.4,0l0.1,0.1l1.7-1.7l-0.1-0.1c-0.4-0.4-0.4-1,0-1.4s1-0.4,1.4,0l0.1,0.1l1.7-1.7
		l-0.1-0.1c-0.4-0.4-0.4-1,0-1.4s1-0.4,1.4,0l1.6,1.6C22.5,11.8,22.5,12.4,22.2,12.8z"/>
</g>
</svg>
