<svg width="650" height="265" xmlns="http://www.w3.org/2000/svg">
 <!-- Generator: Sketch 59 (86127) - https://sketch.com -->

 <title>Group 32</title>
 <desc>Created with Sketch.</desc>
 <g>
  <title>background</title>
  <rect x="-1" y="-1" width="652" height="267" id="canvas_background" fill="none"/>
 </g>
 <g>
  <title>Layer 1</title>
  <path d="m126.0079,41.76502c0,-4.02667 3.25607,-7.28339 7.29057,-7.28339l253.57341,0c4.02702,0 7.29057,3.25887 7.29057,7.28339l0,173.54246c0,4.02667 -3.25607,7.28338 -7.29057,7.28338l-253.57341,0c-4.02702,0 -7.29057,-3.25887 -7.29057,-7.28338l0,-173.54246z" id="Case" stroke="#0053ff" stroke-width="2.08143" fill="#FFFFFF"/>
  <path d="m142.40967,53.73653c0,-1.72415 1.40367,-3.12382 3.12626,-3.12382l228.83814,0c1.72876,0 3.12627,1.39168 3.12627,3.12382l0,129.30549c0,1.72415 -1.40367,3.12382 -3.12627,3.12382l-228.83814,0c-1.72875,0 -3.12626,-1.39168 -3.12626,-3.12382l0,-129.30549z" id="Case" stroke="#0053ff" stroke-width="2.08143" fill="#FFFFFF"/>
  <path d="m240.98955,222.59086l38.4516,0l2.59599,33.56306l-43.64358,0l2.59599,-33.56306z" id="Case" stroke="#0053ff" stroke-width="2.08143" fill="#FFFFFF"/>
  <path d="m222.33441,256.4115l0,3.51501c0,2.08031 1.69005,3.7726 3.76999,3.7726l68.2219,0c2.07614,0 3.76999,-1.69248 3.76999,-3.7726l0,-3.51501c0,-0.14573 -0.11266,-0.25758 -0.26155,-0.25758l-75.23878,0c-0.14581,0 -0.26155,0.11546 -0.26155,0.25758z" id="Keyboard" stroke="#0053ff" stroke-width="2.08143" fill="#FFFFFF"/>
  <ellipse id="Oval-6" stroke="#0053ff" stroke-width="2.08143" cx="260.21535" cy="205.80934" rx="4.81639" ry="4.81331" fill-opacity="0" fill="#000000"/>
  <rect id="Case" stroke="#0053ff" stroke-width="2.08143" fill="#FFFFFF" x="101.27507" y="162.74975" width="51.54708" height="100.94935" rx="6.24429"/>
  <path d="m101.27507,173.93744l51.54708,0l0,74.74935l-51.54708,0l0,-74.74935z" id="Case" stroke="#0053ff" stroke-width="2.08143" fill="#FFFFFF"/>
  <rect id="Rectangle-11" fill="#7510F7" x="114.81237" y="167.17279" width="24.73282" height="2.08143" rx="1.04072" stroke="#0053ff"/>
  <rect id="Rectangle-11" fill="#7510F7" x="124.18481" y="253.03178" width="5.93588" height="5.93208" rx="2.96604" stroke="#0053ff"/>
  <ellipse id="Oval-6" stroke="#0053ff" stroke-width="2.08143" fill="#FFFFFF" cx="115.85376" cy="211.143" rx="3.90518" ry="3.90268"/>
  <rect id="Rectangle-11" fill="#7510F7" x="124.96585" y="204.37835" width="18.22419" height="2.08143" rx="1.04072" stroke="#0053ff"/>
  <rect id="Rectangle-11" fill="#7510F7" x="124.96585" y="210.10228" width="13.01728" height="2.08143" rx="1.04072" stroke="#0053ff"/>
  <rect id="Rectangle-11" fill="#7510F7" x="124.96585" y="215.82622" width="7.81037" height="2.08143" rx="1.04072" stroke="#0053ff"/>
  <ellipse id="Oval-7" stroke="#0053ff" stroke-width="2.08143" fill="#FFFFFF" cx="74.84934" cy="171.72592" rx="39.9637" ry="39.93744"/>
  <rect id="Case" stroke="#0053ff" stroke-width="2.08143" fill="#FFFFFF" x="319.70497" y="123.46276" width="192.65435" height="129.30884" rx="6.24429"/>
  <path d="m306.42601,253.02579l0,5.20956c0,3.013 2.44833,5.46376 5.46234,5.46376l208.28758,0c3.01151,0 5.46234,-2.44922 5.46234,-5.46376l0,-5.20956c0,-0.14166 -0.11318,-0.25419 -0.25886,-0.25419l-218.69454,0c-0.14623,0 -0.25886,0.1125 -0.25886,0.25419z" id="Keyboard" stroke="#0053ff" stroke-width="2.08143" fill="#FFFFFF"/>
  <path d="m430.42885,252.88873l-29.15844,-0.0005c1.16337,3.07326 4.13201,5.20358 7.53787,5.20358l14.08285,0c3.40627,0 6.37434,-2.13004 7.53772,-5.20308z" id="Notch" stroke="#0053ff" stroke-width="2.08143" fill="#FFFFFF"/>
  <rect id="Screen" stroke="#0053ff" stroke-width="2.08143" fill="#FFFFFF" x="328.29503" y="135.69116" width="175.31972" height="105.07308" rx="2.08143"/>
  <ellipse id="Oval-3" fill="#293347" cx="254.35757" cy="52.95432" rx="1.30173" ry="1.30089" stroke="#0053ff"/>
  <path d="m179.89942,14.96822l120.2783,0l0,115.25957c0,4.0213 -3.26921,7.28462 -7.29126,7.28462l-105.69579,0c-4.02504,0 -7.29125,-3.2645 -7.29125,-7.28462l0,-115.25957z" id="Case" stroke="#0053ff" stroke-width="2.08143" fill="#FFFFFF"/>
  <path d="m179.89942,9.23775c0,-4.01813 3.26944,-7.27847 7.29125,-7.27847l105.69579,0c4.02702,0 7.29126,3.25685 7.29126,7.27847l0,7.8119l-120.2783,0l0,-7.8119z" id="Case" stroke="#0053ff" stroke-width="2.08143" fill="#FFFFFF"/>
  <ellipse id="Oval-5" fill="#7510F7" cx="191.09361" cy="9.50447" rx="2.34311" ry="2.34161" stroke="#0053ff"/>
  <ellipse id="Oval-5" fill="#7510F7" cx="198.90398" cy="9.50447" rx="2.34311" ry="2.34161" stroke="#0053ff"/>
  <ellipse id="Oval-5" fill="#7510F7" cx="206.71434" cy="9.50447" rx="2.34311" ry="2.34161" stroke="#0053ff"/>
  <rect id="Rectangle-11" fill="#7510F7" x="194.4781" y="90.94042" width="4.68622" height="2.08143" rx="1.04072" stroke="#0053ff"/>
  <rect id="Rectangle-11" fill="#7510F7" x="194.4781" y="38.90467" width="4.68622" height="2.08143" rx="1.04072" stroke="#0053ff"/>
  <path d="m203.32918,38.90467l7.03067,0c0.57477,0 1.04071,0.46594 1.04071,1.04071c0,0.57477 -0.46594,1.04072 -1.04071,1.04072l-7.03067,0c-0.57477,0 -1.04071,-0.46595 -1.04071,-1.04072c0,-0.57477 0.46594,-1.04071 1.04071,-1.04071z" id="Rectangle-11" fill="#7510F7" stroke="#0053ff"/>
  <path d="m215.04473,38.90467l7.03067,0c0.57477,0 1.04071,0.46594 1.04071,1.04071c0,0.57477 -0.46594,1.04072 -1.04071,1.04072l-7.03067,0c-0.57477,0 -1.04071,-0.46595 -1.04071,-1.04072c0,-0.57477 0.46594,-1.04071 1.04071,-1.04071z" id="Rectangle-11" fill="#7510F7" stroke="#0053ff"/>
  <path d="m226.76028,38.90467l13.01861,0c0.57477,0 1.04072,0.46594 1.04072,1.04071c0,0.57477 -0.46595,1.04072 -1.04072,1.04072l-13.01861,0c-0.57477,0 -1.04071,-0.46595 -1.04071,-1.04072c0,-0.57477 0.46594,-1.04071 1.04071,-1.04071z" id="Rectangle-11" fill="#7510F7" stroke="#0053ff"/>
  <path d="m244.46378,38.90467l19.2669,0c0.57477,0 1.04071,0.46594 1.04071,1.04071c0,0.57477 -0.46594,1.04072 -1.04071,1.04072l-19.2669,0c-0.57478,0 -1.04072,-0.46595 -1.04072,-1.04072c0,-0.57477 0.46594,-1.04071 1.04072,-1.04071z" id="Rectangle-11" fill="#7510F7" stroke="#0053ff"/>
  <rect id="Rectangle-11" fill="#7510F7" x="194.4781" y="49.31182" width="4.68622" height="2.08143" rx="1.04072" stroke="#0053ff"/>
  <rect id="Rectangle-11" fill="#7510F7" x="194.4781" y="59.71897" width="4.68622" height="2.08143" rx="1.04072" stroke="#0053ff"/>
  <rect id="Rectangle-11" fill="#7510F7" x="194.4781" y="70.12612" width="4.68622" height="2.08143" rx="1.04072" stroke="#0053ff"/>
  <rect id="Rectangle-11" fill="#7510F7" x="194.4781" y="80.53327" width="4.68622" height="2.08143" rx="1.04072" stroke="#0053ff"/>
  <rect id="Rectangle-11" fill="#7510F7" x="194.4781" y="101.34757" width="4.68622" height="2.08143" rx="1.04072" stroke="#0053ff"/>
  <rect id="Rectangle-11" fill="#7510F7" x="194.4781" y="111.75472" width="4.68622" height="2.08143" rx="1.04072" stroke="#0053ff"/>
  <rect id="Rectangle-11" fill="#7510F7" x="202.28847" y="49.31182" width="18.22419" height="2.08143" rx="1.04072" stroke="#0053ff"/>
  <rect id="Rectangle-11" fill="#7510F7" x="223.11611" y="49.31182" width="31.24146" height="2.08143" rx="1.04072" stroke="#0053ff"/>
  <rect id="Rectangle-11" fill="#7510F7" x="256.96103" y="49.31182" width="13.01728" height="2.08143" rx="1.04072" stroke="#0053ff"/>
  <rect id="Rectangle-11" fill="#7510F7" x="202.28847" y="59.71897" width="13.01728" height="2.08143" rx="1.04072" stroke="#0053ff"/>
  <rect id="Rectangle-11" fill="#7510F7" x="217.9092" y="59.71897" width="13.01728" height="2.08143" rx="1.04072" stroke="#0053ff"/>
  <rect id="Rectangle-11" fill="#7510F7" x="233.52993" y="59.71897" width="7.81037" height="2.08143" rx="1.04072" stroke="#0053ff"/>
  <rect id="Rectangle-11" fill="#7510F7" x="202.28847" y="70.12612" width="26.03455" height="2.08143" rx="1.04072" stroke="#0053ff"/>
  <rect id="Rectangle-11" fill="#7510F7" x="230.92648" y="70.12612" width="18.22419" height="2.08143" rx="1.04072" stroke="#0053ff"/>
  <rect id="Rectangle-11" fill="#7510F7" x="202.28847" y="80.53327" width="26.03455" height="2.08143" rx="1.04072" stroke="#0053ff"/>
  <rect id="Rectangle-11" fill="#7510F7" x="230.92648" y="80.53327" width="33.84492" height="2.08143" rx="1.04072" stroke="#0053ff"/>
  <rect id="Rectangle-11" fill="#7510F7" x="202.28847" y="90.94042" width="18.22419" height="2.08143" rx="1.04072" stroke="#0053ff"/>
  <rect id="Rectangle-11" fill="#7510F7" x="223.11611" y="90.94042" width="18.22419" height="2.08143" rx="1.04072" stroke="#0053ff"/>
  <rect id="Rectangle-11" fill="#7510F7" x="243.94375" y="90.94042" width="10.41382" height="2.08143" rx="1.04072" stroke="#0053ff"/>
  <rect id="Rectangle-11" fill="#7510F7" x="202.28847" y="101.34757" width="33.84492" height="2.08143" rx="1.04072" stroke="#0053ff"/>
  <rect id="Rectangle-11" fill="#7510F7" x="202.28847" y="111.75472" width="15.62073" height="2.08143" rx="1.04072" stroke="#0053ff"/>
  <path d="m414.99143,96.66435l142.66801,0l0,101.47859c0,4.01999 -3.2599,7.27613 -7.28579,7.27613l-128.09643,0c-4.02132,0 -7.28579,-3.26186 -7.28579,-7.27613l0,-101.47859z" id="Case" stroke="#0053ff" stroke-width="2.08143" fill="#FFFFFF"/>
  <path d="m414.99143,90.93388c0,-4.0212 3.2598,-7.27847 7.28579,-7.27847l128.09643,0c4.02419,0 7.28579,3.25705 7.28579,7.27847l0,7.8119l-142.66801,0l0,-7.8119z" id="Case" stroke="#0053ff" stroke-width="2.08143" fill="#FFFFFF"/>
  <ellipse id="Oval-5" fill="#7510F7" cx="426.18562" cy="91.2006" rx="2.34311" ry="2.34161" stroke="#0053ff"/>
  <ellipse id="Oval-5" fill="#7510F7" cx="433.99598" cy="91.2006" rx="2.34311" ry="2.34161" stroke="#0053ff"/>
  <ellipse id="Oval-5" fill="#7510F7" cx="441.80635" cy="91.2006" rx="2.34311" ry="2.34161" stroke="#0053ff"/>
  <path id="Rectangle-12" stroke-width="2.08143" fill="#FFFFFF" stroke="#0053ff"/>
  <g id="Group-60" fill="#FFFFFF" stroke="#7510F7" stroke-width="2.08143">
   <rect id="Rectangle-15" x="440.50394" y="119.56008" width="16.14276" height="16.13108" rx="3.12214" stroke="#0053ff"/>
   <rect id="Rectangle-15" x="440.50394" y="142.97617" width="16.14276" height="16.13108" rx="3.12214" stroke="#0053ff"/>
   <rect id="Rectangle-15" x="440.50394" y="166.39225" width="16.14276" height="16.13108" rx="3.12214" stroke="#0053ff"/>
  </g>
  <ellipse id="Oval-8" stroke="#0053ff" stroke-width="2.08143" fill="#FFFFFF" cx="632.37927" cy="238.98212" rx="15.62073" ry="15.61072"/>
  <ellipse id="Oval-8" stroke="#0053ff" stroke-width="2.08143" fill="#FFFFFF" cx="632.37927" cy="238.98212" rx="9.11209" ry="9.10626"/>
  <path d="m588.63989,214.00496c-0.57477,0 -1.04072,0.46595 -1.04072,1.04072l0,43.71003c0,2.87386 2.32972,5.20358 5.20358,5.20358l35.91737,0c2.87385,0 5.20357,-2.32972 5.20357,-5.20358l0,-43.71003c0,-0.57477 -0.46594,-1.04072 -1.04071,-1.04072l-44.24309,0z" id="Rectangle-16" stroke="#0053ff" stroke-width="2.08143" fill="#FFFFFF"/>
  <path d="m557.92045,263.69911c8.62709,0 15.62073,0 15.62073,0c0,-8.62157 -6.99364,-15.61073 -15.62073,-15.61073c-8.62709,0 -15.62073,6.98916 -15.62073,15.61073c0,0 6.99364,0 15.62073,0z" id="Oval-8" stroke="#0053ff" stroke-width="2.08143" fill="#FFFFFF"/>
  <rect id="Rectangle-11" fill="#7510F7" x="556.87907" y="247.56802" width="2.08276" height="3.38232" rx="1.04138" stroke="#0053ff"/>
  <path d="m16.39139,232.99789c-8.47794,0 -15.35067,6.87273 -15.35067,15.35067c0,8.47794 6.87273,15.35067 15.35067,15.35067l63.01566,0c0.86216,0 1.56108,-0.69891 1.56108,-1.56107l0,-2.41599c0,-1.09233 -0.8444,-1.99882 -1.93398,-2.0762c-7.15377,-0.50811 -10.95364,-3.65072 -10.95364,-9.29741c0,-5.64669 3.79987,-8.78931 10.95365,-9.29741c1.08957,-0.07739 1.93397,-0.98388 1.93397,-2.0762l0,-2.41599c0,-0.86216 -0.69892,-1.56107 -1.56108,-1.56107l-63.01566,0z" id="Rectangle-17" stroke="#0053ff" stroke-width="2.08143" fill="#FFFFFF"/>
  <path d="m80.18642,258.29976c0,0.25182 -0.20427,0.45595 -0.45624,0.45595l0,0l-7.37675,0l-56.21201,0c-5.75139,0 -10.41382,-4.65944 -10.41382,-10.40715c0,-5.74771 4.66243,-10.40715 10.41382,-10.40715l56.21201,0l7.37675,0l0,0c0.25197,0 0.45624,0.20413 0.45624,0.45595" id="Rectangle-19" stroke="#0053ff" stroke-width="2.08143" fill-opacity="0" fill="#ffffff"/>
  <rect id="Rectangle-18" fill="#7510F7" x="14.05866" y="243.92552" width="54.67256" height="2.08143" rx="1.04072" stroke="#0053ff"/>
  <rect id="Rectangle-18" fill="#7510F7" x="14.05866" y="250.42999" width="54.67256" height="2.08143" rx="1.04072" stroke="#0053ff"/>
  <path d="m65.12654,181.05509c-1.27767,-1.13516 -2.55533,-2.27032 -3.833,-3.40549c-2.0361,-1.80699 -4.06636,-3.61978 -6.10246,-5.42677c-0.46673,-0.41121 -0.93346,-0.82821 -1.39435,-1.23942c0,0.54442 0,1.09462 0,1.63904c1.27766,-1.13516 2.55533,-2.27033 3.833,-3.40549c2.0361,-1.807 4.06636,-3.61978 6.10246,-5.42678c0.46673,-0.4112 0.93346,-0.8282 1.39435,-1.23941c0.45506,-0.40542 0.44923,-1.23362 0,-1.63904c-0.48423,-0.44595 -1.16098,-0.43437 -1.65105,0c-1.27766,1.13517 -2.55533,2.27033 -3.833,3.40549c-2.0361,1.807 -4.06636,3.61979 -6.10246,5.42678c-0.46673,0.41121 -0.93346,0.82821 -1.39435,1.23941c-0.44923,0.39963 -0.44923,1.23942 0,1.63904c1.27766,1.13516 2.55533,2.27033 3.833,3.40549c2.0361,1.807 4.06636,3.61978 6.10246,5.42678c0.46673,0.4112 0.93346,0.8282 1.39435,1.23941c0.45506,0.40542 1.20766,0.48071 1.65105,0c0.40839,-0.44017 0.48423,-1.20466 0,-1.63904l0,0z" id="Shape" fill="#7510F7" fill-rule="nonzero" stroke="#0053ff"/>
  <path d="m84.58258,162.55353c1.27767,1.13516 2.55534,2.27032 3.833,3.40549c2.0361,1.80699 4.06637,3.61978 6.10247,5.42677c0.46673,0.41121 0.93345,0.82821 1.39435,1.23942c0,-0.54442 0,-1.09463 0,-1.63904c-1.27767,1.13516 -2.55534,2.27033 -3.833,3.40549c-2.0361,1.80699 -4.06637,3.61978 -6.10247,5.42677c-0.46673,0.41121 -0.93345,0.82821 -1.39435,1.23942c-0.45506,0.40541 -0.44922,1.23362 0,1.63904c0.48423,0.44595 1.16099,0.43437 1.65105,0c1.27767,-1.13517 2.55534,-2.27033 3.833,-3.4055c2.0361,-1.80699 4.06637,-3.61978 6.10247,-5.42677c0.46672,-0.41121 0.93345,-0.82821 1.39435,-1.23941c0.44922,-0.39963 0.44922,-1.23942 0,-1.63904c-1.27767,-1.13517 -2.55534,-2.27033 -3.83301,-3.40549c-2.03609,-1.807 -4.06636,-3.61978 -6.10246,-5.42678c-0.46673,-0.41121 -0.93346,-0.8282 -1.39435,-1.23941c-0.45506,-0.40542 -1.20766,-0.48071 -1.65105,0c-0.40839,0.44016 -0.48423,1.20466 0,1.63904l0,0z" id="Shape" fill="#7510F7" fill-rule="nonzero" stroke="#0053ff"/>
  <path d="m70.69373,187.87571c0.35004,-1.0425 0.69426,-2.08499 1.0443,-3.13328c0.83428,-2.50778 1.66855,-5.00978 2.50283,-7.51756c1.00346,-3.02324 2.00693,-6.04069 3.01623,-9.06394c0.86928,-2.61203 1.73856,-5.22406 2.60784,-7.8361c0.41422,-1.26837 0.88095,-2.53095 1.266,-3.81669c0.00583,-0.01738 0.01167,-0.03475 0.0175,-0.05213c0.19252,-0.57337 -0.2217,-1.29154 -0.81677,-1.42475c-0.64175,-0.14479 -1.231,0.19113 -1.43519,0.81084c-0.35005,1.04249 -0.69426,2.08499 -1.04431,3.13328c-0.83427,2.50778 -1.66855,5.00977 -2.50282,7.51756c-1.00347,3.02324 -2.00693,6.04069 -3.01623,9.06393c-0.86928,2.61204 -1.73856,5.22407 -2.60784,7.83611c-0.41422,1.26257 -0.88095,2.52516 -1.266,3.8109c-0.00583,0.01738 -0.01167,0.03475 -0.0175,0.05213c-0.19253,0.57337 0.22169,1.29153 0.81677,1.42474c0.64175,0.14479 1.231,-0.19112 1.43519,-0.80504l0,0z" id="Shape" fill="#7510F7" fill-rule="nonzero" stroke="#0053ff"/>
  <ellipse fill="#0053ff" stroke-width="null" stroke-opacity="null" cx="508.19996" cy="149.5" id="svg_1" rx="7.5" ry="8" stroke="#0053ff"/>
  <ellipse fill="none" stroke="#0053ff" stroke-width="2.08143" stroke-opacity="null" cx="508.2" cy="149.5" id="svg_2" rx="17.5" ry="42" transform="rotate(-23.461048126220703 508.2000122070312,149.4999999999999) "/>
  <ellipse fill="none" stroke="#0053ff" stroke-width="2.08143" stroke-opacity="null" cx="508.2" cy="149.5" id="svg_3" rx="17.5" ry="42" transform="rotate(21.11241340637207 508.20001220703125,149.5) "/>
  <ellipse fill="none" stroke="#0053ff" stroke-width="2.08143" stroke-opacity="null" cx="508.2" cy="149.5" id="svg_4" rx="17.5" ry="42" transform="rotate(88.53085327148438 508.2000122070313,149.49999999999997) "/>
  <metadata>Created by potrace 1.15, written by Peter Selinger 2001-2017</metadata>
 </g>
</svg>